<svg width="40" height="40" viewBox="0 0 40 40" fill="none" xmlns="http://www.w3.org/2000/svg">
<mask id="mask0_2844_114394" style="mask-type:alpha" maskUnits="userSpaceOnUse" x="0" y="0" width="40" height="40">
<rect width="40" height="40" fill="#D9D9D9"/>
</mask>
<g mask="url(#mask0_2844_114394)">
<path d="M5.33277 16.083C5.13877 15.9723 5.02077 15.8127 4.97877 15.604C4.93744 15.396 4.97211 15.1947 5.08277 15C6.77744 12.5553 8.95111 10.6597 11.6038 9.31301C14.2564 7.96567 17.0828 7.29201 20.0828 7.29201C23.0554 7.29201 25.8611 7.93767 28.4998 9.22901C31.1384 10.521 33.3191 12.3613 35.0418 14.75C35.2084 15 35.2638 15.2223 35.2078 15.417C35.1524 15.611 35.0414 15.7777 34.8748 15.917C34.7361 16.0557 34.5554 16.118 34.3328 16.104C34.1108 16.09 33.9164 15.972 33.7498 15.75C32.2218 13.5553 30.2424 11.8747 27.8118 10.708C25.3818 9.54134 22.8054 8.94434 20.0828 8.91701C17.3608 8.91701 14.7984 9.50734 12.3958 10.688C9.99311 11.868 8.02777 13.5553 6.49977 15.75C6.30511 16 6.10377 16.146 5.89577 16.188C5.68711 16.2293 5.49944 16.1943 5.33277 16.083ZM25.2078 37C22.0971 36.3053 19.6181 34.847 17.7708 32.625C15.9234 30.403 14.9998 27.7363 14.9998 24.625C14.9998 23.2083 15.4998 22.014 16.4998 21.042C17.4998 20.0693 18.6941 19.583 20.0828 19.583C21.4994 19.583 22.7078 20.0553 23.7078 21C24.7078 21.9447 25.2078 23.1113 25.2078 24.5C25.2078 25.4447 25.5551 26.2503 26.2498 26.917C26.9444 27.5837 27.7778 27.917 28.7498 27.917C29.6944 27.917 30.5001 27.5837 31.1668 26.917C31.8334 26.2503 32.1668 25.4447 32.1668 24.5C32.1668 21.25 30.9861 18.5207 28.6248 16.312C26.2634 14.104 23.4161 13 20.0828 13C16.7494 13 13.9091 14.125 11.5618 16.375C9.21511 18.625 8.04177 21.375 8.04177 24.625C8.04177 25.5137 8.11811 26.458 8.27077 27.458C8.42344 28.458 8.69411 29.5137 9.08277 30.625C9.16611 30.875 9.16611 31.0833 9.08277 31.25C8.99944 31.4167 8.86077 31.5417 8.66677 31.625C8.44411 31.7083 8.22877 31.7153 8.02077 31.646C7.81211 31.5767 7.65244 31.403 7.54177 31.125C7.20844 30.2363 6.94444 29.2363 6.74977 28.125C6.55511 27.0137 6.45777 25.847 6.45777 24.625C6.45777 20.9583 7.79811 17.8263 10.4788 15.229C13.1594 12.6317 16.3608 11.333 20.0828 11.333C23.8608 11.333 27.0901 12.604 29.7708 15.146C32.4514 17.6873 33.7918 20.8053 33.7918 24.5C33.7918 25.8887 33.2984 27.0693 32.3118 28.042C31.3258 29.014 30.1384 29.5 28.7498 29.5C27.3051 29.5 26.0828 29.0277 25.0828 28.083C24.0828 27.139 23.5828 25.9863 23.5828 24.625C23.5828 23.653 23.2424 22.8337 22.5618 22.167C21.8818 21.5003 21.0554 21.167 20.0828 21.167C19.1388 21.167 18.3264 21.5003 17.6458 22.167C16.9651 22.8337 16.6248 23.653 16.6248 24.625C16.6248 27.403 17.4304 29.7363 19.0418 31.625C20.6524 33.5137 22.8468 34.8053 25.6248 35.5C25.8748 35.5553 26.0414 35.6663 26.1248 35.833C26.2081 35.9997 26.2358 36.1943 26.2078 36.417C26.1524 36.611 26.0484 36.7707 25.8958 36.896C25.7431 37.0207 25.5138 37.0553 25.2078 37ZM10.4998 7.16701C10.2498 7.30567 10.0344 7.34034 9.85377 7.27101C9.67311 7.20167 9.52744 7.08367 9.41677 6.91701C9.30544 6.77767 9.27044 6.59001 9.31177 6.35401C9.35377 6.11801 9.47211 5.95834 9.66677 5.87501C11.2774 4.95834 12.9648 4.28467 14.7288 3.85401C16.4928 3.42334 18.2774 3.20801 20.0828 3.20801C21.9161 3.20801 23.7011 3.42334 25.4378 3.85401C27.1738 4.28467 28.8334 4.91667 30.4168 5.75001C30.6668 5.86134 30.8124 6.02101 30.8538 6.22901C30.8958 6.43767 30.8751 6.62534 30.7918 6.79201C30.7084 6.98601 30.5694 7.13167 30.3748 7.22901C30.1801 7.32634 29.9578 7.30567 29.7078 7.16701C28.2358 6.41701 26.6871 5.83367 25.0618 5.41701C23.4371 5.00034 21.7774 4.79201 20.0828 4.79201C18.4161 4.79201 16.7704 4.98634 15.1458 5.37501C13.5204 5.76367 11.9718 6.36101 10.4998 7.16701ZM15.6668 36.333C14.0554 34.6663 12.8331 32.8957 11.9998 31.021C11.1664 29.1457 10.7498 27.0137 10.7498 24.625C10.7498 22.0697 11.6594 19.903 13.4788 18.125C15.2981 16.347 17.4994 15.458 20.0828 15.458C22.6661 15.458 24.8884 16.333 26.7498 18.083C28.6111 19.833 29.5418 21.972 29.5418 24.5C29.5418 24.778 29.4721 24.9933 29.3328 25.146C29.1941 25.2987 28.9998 25.375 28.7498 25.375C28.4718 25.375 28.2564 25.2987 28.1038 25.146C27.9511 24.9933 27.8748 24.778 27.8748 24.5C27.8748 22.3887 27.1108 20.618 25.5828 19.188C24.0554 17.7573 22.2221 17.042 20.0828 17.042C17.9441 17.042 16.1248 17.778 14.6248 19.25C13.1248 20.722 12.3748 22.5137 12.3748 24.625C12.3748 26.847 12.7358 28.7707 13.4578 30.396C14.1804 32.0207 15.3194 33.6387 16.8748 35.25C17.0694 35.4447 17.1598 35.639 17.1458 35.833C17.1318 36.0277 17.0691 36.2083 16.9578 36.375C16.8191 36.5417 16.6178 36.625 16.3538 36.625C16.0898 36.625 15.8608 36.5277 15.6668 36.333ZM28.7918 33.5C26.1804 33.5 23.9441 32.6943 22.0828 31.083C20.2221 29.4723 19.2918 27.292 19.2918 24.542C19.2918 24.292 19.3611 24.0837 19.4998 23.917C19.6384 23.7503 19.8328 23.667 20.0828 23.667C20.3328 23.667 20.5274 23.7503 20.6668 23.917C20.8054 24.0837 20.8748 24.292 20.8748 24.542C20.8748 26.8473 21.6594 28.6527 23.2288 29.958C24.7981 31.264 26.6524 31.917 28.7918 31.917C29.0418 31.917 29.3334 31.896 29.6668 31.854C30.0001 31.8127 30.3334 31.778 30.6668 31.75C30.8888 31.722 31.0761 31.7777 31.2288 31.917C31.3814 32.0557 31.4578 32.2083 31.4578 32.375C31.4858 32.597 31.4441 32.7777 31.3328 32.917C31.2221 33.0557 31.0834 33.1527 30.9168 33.208C30.4721 33.3473 30.0554 33.4307 29.6668 33.458C29.2774 33.486 28.9858 33.5 28.7918 33.5Z" fill="black"/>
</g>
</svg>
